{"title":"McFarland.USA.2015.1080p.BluRay.x264-GECKOS[rarbg]","uid":11931227,"size":10579049299,"categoryP":"video","categoryS":"hd___movies","magnet":"?xt=urn:btih:9d0bfa46688a17096d995e23a7c0177de2a079da&amp;dn=McFarland.USA.2015.1080p.BluRay.x264-GECKOS%5Brarbg%5D&amp;tr=udp%3A%2F%2Ftracker.openbittorrent.com%3A80&amp;tr=udp%3A%2F%2Fopen.demonii.com%3A1337&amp;tr=udp%3A%2F%2Ftracker.coppersurfer.tk%3A6969&amp;tr=udp%3A%2F%2Fexodus.desync.com%3A6969","seeders":0,"leechers":1,"uploader":"vickey1992","files":6,"time":1431805775,"description":"Video\nID                                       : 1\nFormat                                   : AVC\nFormat/Info                              : Advanced Video Codec\nFormat profile                           : &lt;a class=&quot;__cf_email__&quot; href=&quot;/cdn-cgi/l/email-protection&quot; data-cfemail=&quot;e9a1808e81a9a5ddc7d8&quot;&gt;[email&amp;#160;protected]&lt;/a&gt;&lt;script data-cfhash='f9e31' type=&quot;text/javascript&quot;&gt;\n/* &lt;![CDATA[ */!function(){try{var t=&quot;currentScript&quot;in document?document.currentScript:function(){for(var t=document.getElementsByTagName(&quot;script&quot;),e=t.length;e--;)if(t[e].getAttribute(&quot;data-cfhash&quot;))return t[e]}();if(t&amp;&amp;t.previousSibling){var e,r,n,i,c=t.previousSibling,a=c.getAttribute(&quot;data-cfemail&quot;);if(a){for(e=&quot;&quot;,r=parseInt(a.substr(0,2),16),n=2;a.length-n;n+=2)i=parseInt(a.substr(n,2),16)^r,e+=String.fromCharCode(i);e=document.createTextNode(e),c.parentNode.replaceChild(e,c)}t.parentNode.removeChild(t);}}catch(u){}}()/* ]]&gt; */&lt;/script&gt;\nFormat settings, CABAC                   : Yes\nFormat settings, ReFrames                : 5 frames\nCodec ID                                 : V_MPEG4/ISO/AVC\nDuration                                 : 2h 9mn\nBit rate                                 : 9 410 Kbps\nWidth                                    : 1 920 pixels\nHeight                                   : 808 pixels\nDisplay aspect ratio                     : 2.40:1\nFrame rate mode                          : Constant\nFrame rate                               : 23.976 fps\nColor space                              : YUV\nChroma subsampling                       : 4:2:0\nBit depth                                : 8 bits\nScan type                                : Progressive\nBits/(Pixel*Frame)                       : 0.253\nStream size                              : 8.28 GiB (84%)\nWriting library                          : x264 core 144 r2525 40bb568\nEncoding settings                        : cabac=1 / ref=5 / deblock=1:0:0 / analyse=0x3:0x133 / me=umh / subme=7 / psy=1 / psy_rd=1.00:0.00 / mixed_ref=1 / me_range=16 / chroma_me=1 / trellis=1 / 8x8dct=1 / cqm=0 / deadzone=21,11 / fast_pskip=0 / chroma_qp_offset=-2 / threads=18 / lookahead_threads=3 / sliced_threads=0 / nr=0 / decimate=1 / interlaced=0 / bluray_compat=0 / constrained_intra=0 / bframes=3 / b_pyramid=2 / b_adapt=1 / b_bias=0 / direct=1 / weightb=1 / open_gop=0 / weightp=2 / keyint=250 / keyint_min=23 / scenecut=40 / intra_refresh=0 / rc_lookahead=40 / rc=2pass / mbtree=1 / bitrate=9410 / ratetol=1.0 / qcomp=0.60 / qpmin=0 / qpmax=69 / qpstep=4 / cplxblur=20.0 / qblur=0.5 / ip_ratio=1.40 / aq=1:1.00\nLanguage                                 : English\nDefault                                  : Yes\nForced                                   : No\n\nAudio\nID                                       : 2\nFormat                                   : DTS\nFormat/Info                              : Digital Theater Systems\nMode                                     : 16\nFormat settings, Endianness              : Big\nCodec ID                                 : A_DTS\nDuration                                 : 2h 9mn\nBit rate mode                            : Constant\nBit rate                                 : 1 509 Kbps\nChannel(s)                               : 6 channels\nChannel positions                        : Front: L C R, Side: L R, LFE\nSampling rate                            : 48.0 KHz\nBit depth                                : 24 bits\nCompression mode                         : Lossy\nStream size                              : 1.36 GiB (14%)\nLanguage                                 : English\nDefault                                  : Yes\nForced                                   : No\n\nText\nID                                       : 3\nFormat                                   : UTF-8\nCodec ID                                 : S_TEXT/UTF8\nCodec ID/Info                            : UTF-8 Plain Text\nTitle                                    : English-Forced\nLanguage                                 : English\nDefault                                  : Yes\nForced                                   : Yes\n\nMenu\n00:00:00.000                             : en:00:00:00.000\n00:05:48.348                             : en:00:05:48.348\n00:08:58.538                             : en:00:08:58.538\n00:13:24.846                             : en:00:13:24.846\n00:15:26.676                             : en:00:15:26.676\n00:19:21.369                             : en:00:19:21.369\n00:22:19.296                             : en:00:22:19.296\n00:25:50.758                             : en:00:25:50.758\n00:34:41.454                             : en:00:34:41.454\n00:41:11.177                             : en:00:41:11.177\n00:43:13.841                             : en:00:43:13.841\n00:48:04.924                             : en:00:48:04.924\n00:55:29.952                             : en:00:55:29.952\n00:57:24.316                             : en:00:57:24.316\n01:01:23.096                             : en:01:01:23.096\n01:06:03.459                             : en:01:06:03.459\n01:10:50.997                             : en:01:10:50.997\n01:14:02.855                             : en:01:14:02.855\n01:18:48.557                             : en:01:18:48.557\n01:28:10.535                             : en:01:28:10.535\n01:37:34.849                             : en:01:37:34.849\n01:40:24.644                             : en:01:40:24.644\n01:45:38.082                             : en:01:45:38.082\n01:53:12.744                             : en:01:53:12.744\n02:02:03.775                             : en:02:02:03.775\n02:04:34.509                             : en:02:04:34.509","torrent":{"xt":"urn:btih:9d0bfa46688a17096d995e23a7c0177de2a079da","amp;dn":"McFarland.USA.2015.1080p.BluRay.x264-GECKOS%5Brarbg%5D","amp;tr":["udp%3A%2F%2Ftracker.openbittorrent.com%3A80","udp%3A%2F%2Fopen.demonii.com%3A1337","udp%3A%2F%2Ftracker.coppersurfer.tk%3A6969","udp%3A%2F%2Fexodus.desync.com%3A6969"],"infoHash":"9d0bfa46688a17096d995e23a7c0177de2a079da","infoHashBuffer":{"type":"Buffer","data":[157,11,250,70,104,138,23,9,109,153,94,35,167,192,23,125,226,160,121,218]},"announce":[],"urlList":[]}}